<!-- Generated by readme-aura https://github.com/collectioneur/readme-aura -->
<svg width="900" height="220" viewBox="0 0 900 220" xmlns="http://www.w3.org/2000/svg"><clipPath id="satori_cp-id"><path x="0" y="0" width="900" height="220" d="M20,0 h860 a20,20 0 0 1 20,20 v180 a20,20 0 0 1 -20,20 h-860 a20,20 0 0 1 -20,-20 v-180 a20,20 0 0 1 20,-20"/></clipPath><mask id="satori_om-id"><rect x="0" y="0" width="900" height="220" fill="#fff"/></mask><path x="0" y="0" width="900" height="220" fill="#08080d" d="M20,0 h860 a20,20 0 0 1 20,20 v180 a20,20 0 0 1 -20,20 h-860 a20,20 0 0 1 -20,-20 v-180 a20,20 0 0 1 20,-20"/><clipPath id="satori_cp-id-0" clip-path="url(#satori_cp-id)"><rect x="0" y="0" width="900" height="220"/></clipPath><mask id="satori_om-id-0"><rect x="0" y="0" width="900" height="220" fill="#fff" mask="url(#satori_om-id)"/></mask><svg x="0" y="0" width="900" height="220" preserveAspectRatio="none" clip-path="url(#satori_cp-id-0)" mask="url(#satori_om-id-0)"><defs><radialGradient id="stg1" cx="50%" cy="50%" r="50%"><stop offset="0%" stop-color="rgba(108,195,255,0.4)"></stop><stop offset="100%" stop-color="rgba(108,195,255,0)"></stop></radialGradient><radialGradient id="stg2" cx="50%" cy="50%" r="50%"><stop offset="0%" stop-color="rgba(230,100,180,0.35)"></stop><stop offset="100%" stop-color="rgba(230,100,180,0)"></stop></radialGradient><radialGradient id="stg3" cx="50%" cy="50%" r="50%"><stop offset="0%" stop-color="rgba(80,160,220,0.3)"></stop><stop offset="100%" stop-color="rgba(80,160,220,0)"></stop></radialGradient><radialGradient id="stg4" cx="50%" cy="50%" r="50%"><stop offset="0%" stop-color="rgba(195,155,255,0.3)"></stop><stop offset="100%" stop-color="rgba(195,155,255,0)"></stop></radialGradient></defs><ellipse id="st-o1" cx="80" cy="180" rx="180" ry="140" fill="url(#stg1)"></ellipse><ellipse id="st-o2" cx="820" cy="50" rx="170" ry="130" fill="url(#stg2)"></ellipse><ellipse id="st-o3" cx="720" cy="190" rx="160" ry="120" fill="url(#stg3)"></ellipse><ellipse id="st-o4" cx="180" cy="40" rx="150" ry="110" fill="url(#stg4)"></ellipse><style>

    @keyframes s-orb { 0%, 100% { transform: translate(0,0); opacity: 0.45; } 50% { transform: translate(18px,-14px); opacity: 0.7; } }
    @keyframes s-orb-b { 0%, 100% { transform: translate(0,0); opacity: 0.4; } 50% { transform: translate(-14px,10px); opacity: 0.65; } }
    #st-o1 { animation: s-orb 10s ease-in-out infinite; }
    #st-o2 { animation: s-orb-b 12s ease-in-out infinite 1s; }
    #st-o3 { animation: s-orb 9s ease-in-out infinite 2.5s; }
    #st-o4 { animation: s-orb-b 11s ease-in-out infinite 0.5s; }
  
</style>
</svg><mask id="satori_om-id-0-0"><rect x="0" y="0" width="0" height="220" fill="#fff" mask="url(#satori_om-id)"/></mask><mask id="satori_om-id-0-0-0"><rect x="0" y="0" width="0" height="220" fill="#fff" mask="url(#satori_om-id)"/></mask><mask id="satori_om-id-0-0-0-0"><rect x="0" y="0" width="0" height="220" fill="#fff" mask="url(#satori_om-id)"/></mask><mask id="satori_om-id-0-0-0-1"><rect x="0" y="0" width="0" height="220" fill="#fff" mask="url(#satori_om-id)"/></mask><mask id="satori_om-id-0-0-1"><rect x="0" y="0" width="0" height="220" fill="#fff" mask="url(#satori_om-id)"/></mask><mask id="satori_om-id-0-0-1-0"><rect x="0" y="0" width="0" height="220" fill="#fff" mask="url(#satori_om-id)"/></mask><mask id="satori_om-id-0-0-1-1"><rect x="0" y="0" width="0" height="220" fill="#fff" mask="url(#satori_om-id)"/></mask><mask id="satori_om-id-0-0-2"><rect x="0" y="0" width="0" height="220" fill="#fff" mask="url(#satori_om-id)"/></mask><mask id="satori_om-id-0-0-2-0"><rect x="0" y="0" width="0" height="220" fill="#fff" mask="url(#satori_om-id)"/></mask><mask id="satori_om-id-0-0-2-1"><rect x="0" y="0" width="0" height="220" fill="#fff" mask="url(#satori_om-id)"/></mask><mask id="satori_om-id-0-0-3"><rect x="0" y="0" width="0" height="220" fill="#fff" mask="url(#satori_om-id)"/></mask><mask id="satori_om-id-0-0-3-0"><rect x="0" y="0" width="0" height="220" fill="#fff" mask="url(#satori_om-id)"/></mask><mask id="satori_om-id-0-0-3-1"><rect x="0" y="0" width="0" height="220" fill="#fff" mask="url(#satori_om-id)"/></mask><mask id="satori_om-id-0-1"><rect x="0" y="0" width="0" height="220" fill="#fff" mask="url(#satori_om-id)"/></mask><mask id="satori_om-id-0-2"><rect x="0" y="0" width="0" height="220" fill="#fff" mask="url(#satori_om-id)"/></mask><mask id="satori_om-id-0-3"><rect x="0" y="0" width="0" height="220" fill="#fff" mask="url(#satori_om-id)"/></mask><mask id="satori_om-id-0-4"><rect x="0" y="0" width="0" height="220" fill="#fff" mask="url(#satori_om-id)"/></mask><mask id="satori_om-id-1"><rect x="401" y="78" width="98" height="13" fill="#fff" mask="url(#satori_om-id)"/></mask><g mask="url(#satori_om-id)" clip-path="url(#satori_cp-id)"><path fill="rgba(255,255,255,0.35)" d="M402.9 89L402.0 89L402.0 81.0L403.4 81.0L405.4 86.0Q405.5 86.2 405.5 86.5Q405.6 86.8 405.7 87.1Q405.8 87.4 405.9 87.7L405.9 87.7Q406.0 87.8 406.0 87.9L406.0 87.9Q406.0 87.8 406.0 87.7L406.0 87.7Q406.1 87.4 406.2 87.1Q406.3 86.8 406.4 86.5Q406.5 86.2 406.6 86.0L406.6 86.0L408.5 81.0L410.0 81.0L410.0 89L409.0 89L409.0 84.4Q409.0 84.2 409.0 83.9Q409.0 83.5 409.0 83.2Q409.0 82.9 409.0 82.5L409.0 82.5Q409.0 82.3 409.0 82.1L409.0 82.1Q408.9 82.3 408.9 82.5L408.9 82.5Q408.7 82.9 408.6 83.3Q408.5 83.6 408.4 83.9Q408.3 84.2 408.2 84.4L408.2 84.4L406.4 89L405.5 89L403.7 84.4Q403.6 84.2 403.5 84.0Q403.4 83.7 403.3 83.3Q403.2 83.0 403.1 82.6L403.1 82.6Q403.0 82.3 402.9 82.1L402.9 82.1Q402.9 82.3 402.9 82.4L402.9 82.4Q402.9 82.8 402.9 83.1Q402.9 83.5 402.9 83.8Q402.9 84.2 402.9 84.4L402.9 84.4L402.9 89ZM420.2 89L419.2 89L419.2 85.7L416.2 81.0L417.4 81.0L419.0 83.6Q419.3 84.0 419.5 84.4L419.5 84.4Q419.6 84.6 419.7 84.9L419.7 84.9Q419.8 84.6 419.9 84.4L419.9 84.4Q420.1 84.0 420.4 83.6L420.4 83.6L421.9 81.0L423.1 81.0L420.2 85.7L420.2 89Z M440.0 89.1L440.0 89.1Q439.2 89.1 438.5 88.9Q437.9 88.6 437.5 88.1Q437.2 87.6 437.1 86.9L437.1 86.9L438.2 86.9Q438.2 87.4 438.5 87.6Q438.7 87.9 439.1 88.1Q439.6 88.2 440.0 88.2L440.0 88.2Q440.6 88.2 441.0 88.0Q441.4 87.9 441.7 87.5Q441.9 87.2 441.9 86.8L441.9 86.8Q441.9 86.4 441.7 86.2Q441.5 85.9 441.1 85.8Q440.8 85.6 440.4 85.5L440.4 85.5L439.4 85.2Q438.4 85.0 437.9 84.4Q437.3 83.9 437.3 83.1L437.3 83.1Q437.3 82.5 437.7 82.0Q438.1 81.4 438.7 81.2Q439.3 80.9 440.1 80.9L440.1 80.9Q440.9 80.9 441.5 81.2Q442.1 81.4 442.4 81.9Q442.8 82.4 442.8 83.0L442.8 83.0L441.8 83.0Q441.8 82.4 441.3 82.1Q440.8 81.8 440.1 81.8L440.1 81.8Q439.5 81.8 439.2 82.0Q438.8 82.1 438.6 82.4Q438.3 82.7 438.3 83.1L438.3 83.1Q438.3 83.5 438.6 83.8Q438.9 84.0 439.2 84.2Q439.6 84.3 439.9 84.4L439.9 84.4L440.7 84.6Q441.0 84.7 441.4 84.8Q441.8 85.0 442.1 85.2Q442.5 85.5 442.7 85.9Q442.9 86.3 442.9 86.8L442.9 86.8Q442.9 87.5 442.6 88.0Q442.2 88.5 441.6 88.8Q440.9 89.1 440.0 89.1ZM451.6 81.9L449.1 81.9L449.1 81.0L455.1 81.0L455.1 81.9L452.6 81.9L452.6 89L451.6 89L451.6 81.9ZM462.0 89L460.9 89L463.8 81.0L465.0 81.0L468.0 89L466.9 89L466.1 86.8L462.8 86.8L462.0 89ZM463.1 85.9L465.8 85.9L465.2 84.3Q465.0 83.8 464.8 83.2L464.8 83.2Q464.7 82.6 464.4 81.8L464.4 81.8Q464.2 82.6 464.0 83.2L464.0 83.2Q463.8 83.8 463.7 84.3L463.7 84.3L463.1 85.9ZM477.4 89.1L477.4 89.1Q476.4 89.1 475.6 88.6Q474.8 88.1 474.4 87.2Q473.9 86.3 473.9 85.0L473.9 85.0Q473.9 83.7 474.4 82.8Q474.8 81.9 475.6 81.4Q476.4 80.9 477.4 80.9L477.4 80.9Q478.1 80.9 478.6 81.1Q479.1 81.2 479.6 81.6Q480.0 81.9 480.3 82.4Q480.6 82.9 480.7 83.5L480.7 83.5L479.7 83.5Q479.6 83.1 479.4 82.8Q479.2 82.5 478.9 82.3Q478.6 82.0 478.2 81.9Q477.8 81.8 477.4 81.8L477.4 81.8Q476.7 81.8 476.1 82.2Q475.6 82.6 475.2 83.3Q474.9 84.0 474.9 85.0L474.9 85.0Q474.9 86.0 475.2 86.7Q475.6 87.4 476.2 87.8Q476.7 88.2 477.4 88.2L477.4 88.2Q477.8 88.2 478.2 88.1Q478.6 87.9 478.9 87.7Q479.2 87.5 479.4 87.2Q479.6 86.9 479.7 86.5L479.7 86.5L480.7 86.5Q480.6 87.1 480.3 87.6Q480.0 88.1 479.6 88.4Q479.1 88.7 478.6 88.9Q478.1 89.1 477.4 89.1ZM488.3 89L487.2 89L487.2 81.0L488.3 81.0L488.3 83.7L488.3 85.2Q488.4 85.1 488.5 84.9L488.5 84.9Q488.8 84.6 489.0 84.2Q489.3 83.9 489.6 83.6L489.6 83.6L492.0 81.0L493.4 81.0L490.1 84.5L493.4 89L492.2 89L489.4 85.2L488.3 86.4L488.3 89Z "/></g><mask id="satori_om-id-2"><rect x="80" y="109" width="740" height="34" fill="#fff" mask="url(#satori_om-id)"/></mask><defs><clipPath id="satori_bc-id-2-0" clip-path="url(#satori_cp-id)"><path x="80" y="109" width="71" height="34" d="M97,109 h37 a17,17 0 0 1 17,17 v0 a17,17 0 0 1 -17,17 h-37 a17,17 0 0 1 -17,-17 v0 a17,17 0 0 1 17,-17"/></clipPath></defs><mask id="satori_om-id-2-0"><rect x="81" y="110" width="69" height="32" fill="#fff" mask="url(#satori_om-id)"/><path width="71" height="34" fill="none" stroke="#000" stroke-width="2" d="M84.979,113.979 A17,17 0 0 1 97,109 h37 a17,17 0 0 1 17,17 v0 a17,17 0 0 1 -17,17 h-37 a17,17 0 0 1 -17,-17 v0 A17,17 0 0 1 84.979,113.979"/></mask><path x="80" y="109" width="71" height="34" fill="rgba(255,255,255,0.05)" d="M97,109 h37 a17,17 0 0 1 17,17 v0 a17,17 0 0 1 -17,17 h-37 a17,17 0 0 1 -17,-17 v0 a17,17 0 0 1 17,-17" clip-path="url(#satori_cp-id)" mask="url(#satori_om-id)"/><path width="71" height="34" clip-path="url(#satori_bc-id-2-0)" fill="none" stroke="rgba(255,255,255,0.1)" stroke-width="2" d="M84.979,113.979 A17,17 0 0 1 97,109 h37 a17,17 0 0 1 17,17 v0 a17,17 0 0 1 -17,17 h-37 a17,17 0 0 1 -17,-17 v0 A17,17 0 0 1 84.979,113.979"/><g mask="url(#satori_om-id)" clip-path="url(#satori_cp-id)"><path fill="rgba(255,255,255,0.75)" d="M106.0 131.1L106.0 131.1Q104.8 131.1 103.8 130.5Q102.9 130.0 102.3 128.9Q101.8 127.8 101.8 126.3L101.8 126.3Q101.8 124.8 102.3 123.7Q102.9 122.6 103.8 122.0Q104.8 121.4 106.0 121.4L106.0 121.4Q106.7 121.4 107.3 121.6Q108.0 121.8 108.5 122.2Q109.0 122.6 109.3 123.2Q109.7 123.8 109.8 124.5L109.8 124.5L108.6 124.5Q108.5 124.0 108.2 123.7Q108.0 123.3 107.6 123.0Q107.3 122.8 106.9 122.7Q106.4 122.5 106.0 122.5L106.0 122.5Q105.1 122.5 104.4 123.0Q103.7 123.4 103.3 124.2Q102.9 125.1 102.9 126.3L102.9 126.3Q102.9 127.5 103.4 128.3Q103.8 129.2 104.4 129.6Q105.1 130.0 106.0 130.0L106.0 130.0Q106.4 130.0 106.9 129.9Q107.3 129.7 107.6 129.5Q108.0 129.2 108.2 128.9Q108.5 128.5 108.6 128.0L108.6 128.0L109.8 128.0Q109.7 128.7 109.3 129.3Q109.0 129.9 108.5 130.3Q108.0 130.7 107.3 130.9Q106.7 131.1 106.0 131.1ZM115.8 130.4L114.8 130.4L114.8 127.8L112.2 127.8L112.2 126.8L114.8 126.8L114.8 124.2L115.8 124.2L115.8 126.8L118.4 126.8L118.4 127.8L115.8 127.8L115.8 130.4ZM124.9 130.4L123.9 130.4L123.9 127.8L121.3 127.8L121.3 126.8L123.9 126.8L123.9 124.2L124.9 124.2L124.9 126.8L127.5 126.8L127.5 127.8L124.9 127.8L124.9 130.4Z "/></g><defs><clipPath id="satori_bc-id-2-1" clip-path="url(#satori_cp-id)"><path x="161" y="109" width="72" height="34" d="M178,109 h38 a17,17 0 0 1 17,17 v0 a17,17 0 0 1 -17,17 h-38 a17,17 0 0 1 -17,-17 v0 a17,17 0 0 1 17,-17"/></clipPath></defs><mask id="satori_om-id-2-1"><rect x="162" y="110" width="70" height="32" fill="#fff" mask="url(#satori_om-id)"/><path width="72" height="34" fill="none" stroke="#000" stroke-width="2" d="M165.97899999999998,113.979 A17,17 0 0 1 178,109 h38 a17,17 0 0 1 17,17 v0 a17,17 0 0 1 -17,17 h-38 a17,17 0 0 1 -17,-17 v0 A17,17 0 0 1 165.97899999999998,113.979"/></mask><path x="161" y="109" width="72" height="34" fill="rgba(255,255,255,0.05)" d="M178,109 h38 a17,17 0 0 1 17,17 v0 a17,17 0 0 1 -17,17 h-38 a17,17 0 0 1 -17,-17 v0 a17,17 0 0 1 17,-17" clip-path="url(#satori_cp-id)" mask="url(#satori_om-id)"/><path width="72" height="34" clip-path="url(#satori_bc-id-2-1)" fill="none" stroke="rgba(255,255,255,0.1)" stroke-width="2" d="M165.97899999999998,113.979 A17,17 0 0 1 178,109 h38 a17,17 0 0 1 17,17 v0 a17,17 0 0 1 -17,17 h-38 a17,17 0 0 1 -17,-17 v0 A17,17 0 0 1 165.97899999999998,113.979"/><g mask="url(#satori_om-id)" clip-path="url(#satori_cp-id)"><path fill="rgba(255,255,255,0.75)" d="M184.3 131L183.1 131L183.1 121.5L186.4 121.5Q187.5 121.5 188.2 121.9Q188.9 122.3 189.3 123.0Q189.6 123.6 189.6 124.5Q189.6 125.3 189.3 126.0Q188.9 126.6 188.2 127.0L188.2 127.0Q188.0 127.1 187.9 127.1L187.9 127.1L190.0 131L188.6 131L186.6 127.3Q186.5 127.3 186.4 127.3L186.4 127.3L184.3 127.3L184.3 131ZM184.3 122.6L184.3 126.3L186.3 126.3Q187.1 126.3 187.5 126.0Q188.0 125.8 188.2 125.4Q188.4 125.0 188.4 124.5L188.4 124.5Q188.4 123.9 188.2 123.5Q188.0 123.1 187.5 122.8Q187.1 122.6 186.3 122.6L186.3 122.6L184.3 122.6ZM194.3 131.1L194.3 131.1Q193.6 131.1 193.0 130.8Q192.5 130.5 192.2 129.9Q191.9 129.3 191.9 128.4L191.9 128.4L191.9 123.9L193.0 123.9L193.0 128.3Q193.0 129.1 193.4 129.6Q193.9 130.1 194.6 130.1L194.6 130.1Q195.1 130.1 195.5 129.8Q195.9 129.6 196.2 129.2Q196.4 128.8 196.4 128.2L196.4 128.2L196.4 123.9L197.6 123.9L197.6 131L196.4 131L196.4 129.7Q196.1 130.4 195.7 130.7L195.7 130.7Q195.1 131.1 194.3 131.1ZM202.5 131.2L202.5 131.2Q201.7 131.2 201.2 130.9Q200.6 130.7 200.2 130.3Q199.9 129.9 199.7 129.3L199.7 129.3L200.8 129.0Q201.0 129.6 201.4 129.9Q201.8 130.1 202.5 130.1L202.5 130.1Q203.2 130.1 203.6 129.8Q204.1 129.5 204.1 129.1L204.1 129.1Q204.1 128.7 203.8 128.5Q203.6 128.2 203.0 128.1L203.0 128.1L201.9 127.8Q200.9 127.6 200.4 127.1Q200.0 126.6 200.0 125.9L200.0 125.9Q200.0 125.3 200.3 124.8Q200.6 124.3 201.2 124.1Q201.8 123.8 202.6 123.8L202.6 123.8Q203.3 123.8 203.8 124.0Q204.3 124.3 204.7 124.6Q205.0 125.0 205.1 125.5L205.1 125.5L204.1 125.8Q204.0 125.4 203.6 125.1Q203.3 124.8 202.6 124.8L202.6 124.8Q202.0 124.8 201.5 125.1Q201.1 125.4 201.1 125.8L201.1 125.8Q201.1 126.2 201.4 126.4Q201.7 126.7 202.3 126.8L202.3 126.8L203.4 127.1Q204.3 127.3 204.8 127.8Q205.3 128.3 205.3 129.0L205.3 129.0Q205.3 129.6 204.9 130.1Q204.6 130.6 203.9 130.9Q203.3 131.2 202.5 131.2ZM208.8 123.9L210.2 123.9L210.2 124.9L208.8 124.9L208.8 129.2Q208.8 129.6 208.9 129.9Q209.1 130.1 209.6 130.1L209.6 130.1Q209.7 130.1 209.9 130.0Q210.0 130.0 210.2 130.0L210.2 130.0L210.4 131.0Q210.2 131.0 210.0 131.1Q209.8 131.1 209.6 131.1L209.6 131.1Q208.6 131.1 208.1 130.6Q207.6 130.1 207.6 129.2L207.6 129.2L207.6 124.9L206.5 124.9L206.5 123.9L207.6 123.9L207.6 122.2L208.8 122.2L208.8 123.9Z "/></g><defs><clipPath id="satori_bc-id-2-2" clip-path="url(#satori_cp-id)"><path x="243" y="109" width="61" height="34" d="M260,109 h27 a17,17 0 0 1 17,17 v0 a17,17 0 0 1 -17,17 h-27 a17,17 0 0 1 -17,-17 v0 a17,17 0 0 1 17,-17"/></clipPath></defs><mask id="satori_om-id-2-2"><rect x="244" y="110" width="59" height="32" fill="#fff" mask="url(#satori_om-id)"/><path width="61" height="34" fill="none" stroke="#000" stroke-width="2" d="M247.97899999999998,113.979 A17,17 0 0 1 260,109 h27 a17,17 0 0 1 17,17 v0 a17,17 0 0 1 -17,17 h-27 a17,17 0 0 1 -17,-17 v0 A17,17 0 0 1 247.97899999999998,113.979"/></mask><path x="243" y="109" width="61" height="34" fill="rgba(255,255,255,0.05)" d="M260,109 h27 a17,17 0 0 1 17,17 v0 a17,17 0 0 1 -17,17 h-27 a17,17 0 0 1 -17,-17 v0 a17,17 0 0 1 17,-17" clip-path="url(#satori_cp-id)" mask="url(#satori_om-id)"/><path width="61" height="34" clip-path="url(#satori_bc-id-2-2)" fill="none" stroke="rgba(255,255,255,0.1)" stroke-width="2" d="M247.97899999999998,113.979 A17,17 0 0 1 260,109 h27 a17,17 0 0 1 17,17 v0 a17,17 0 0 1 -17,17 h-27 a17,17 0 0 1 -17,-17 v0 A17,17 0 0 1 247.97899999999998,113.979"/><g mask="url(#satori_om-id)" clip-path="url(#satori_cp-id)"><path fill="rgba(255,255,255,0.75)" d="M269.0 131.1L269.0 131.1Q267.8 131.1 266.8 130.5Q265.9 130.0 265.3 128.9Q264.8 127.8 264.8 126.3L264.8 126.3Q264.8 124.8 265.3 123.7Q265.9 122.6 266.8 122.0Q267.8 121.4 269.0 121.4L269.0 121.4Q269.7 121.4 270.3 121.6Q271.0 121.8 271.5 122.2Q272.0 122.6 272.3 123.2Q272.7 123.8 272.8 124.5L272.8 124.5L271.6 124.5Q271.5 124.0 271.2 123.7Q271.0 123.3 270.6 123.0Q270.3 122.8 269.9 122.7Q269.4 122.5 269.0 122.5L269.0 122.5Q268.1 122.5 267.4 123.0Q266.7 123.4 266.3 124.2Q265.9 125.1 265.9 126.3L265.9 126.3Q265.9 127.5 266.4 128.3Q266.8 129.2 267.4 129.6Q268.1 130.0 269.0 130.0L269.0 130.0Q269.4 130.0 269.9 129.9Q270.3 129.7 270.6 129.5Q271.0 129.2 271.2 128.9Q271.5 128.5 271.6 128.0L271.6 128.0L272.8 128.0Q272.7 128.7 272.3 129.3Q272.0 129.9 271.5 130.3Q271.0 130.7 270.3 130.9Q269.7 131.1 269.0 131.1ZM279.5 131L278.5 131L278.9 128.4L276.6 128.4L276.2 131L275.2 131L275.6 128.4L274.2 128.4L274.4 127.4L275.8 127.4L276.2 125.1L274.8 125.1L274.9 124.2L276.3 124.2L276.7 121.5L277.7 121.5L277.3 124.2L279.6 124.2L280.1 121.5L281.0 121.5L280.6 124.2L282.0 124.2L281.9 125.1L280.4 125.1L280.1 127.4L281.5 127.4L281.3 128.4L279.9 128.4L279.5 131ZM277.1 125.1L276.7 127.4L279.1 127.4L279.5 125.1L277.1 125.1Z "/></g><defs><clipPath id="satori_bc-id-2-3" clip-path="url(#satori_cp-id)"><path x="314" y="109" width="52" height="34" d="M331,109 h18 a17,17 0 0 1 17,17 v0 a17,17 0 0 1 -17,17 h-18 a17,17 0 0 1 -17,-17 v0 a17,17 0 0 1 17,-17"/></clipPath></defs><mask id="satori_om-id-2-3"><rect x="315" y="110" width="50" height="32" fill="#fff" mask="url(#satori_om-id)"/><path width="52" height="34" fill="none" stroke="#000" stroke-width="2" d="M318.979,113.979 A17,17 0 0 1 331,109 h18 a17,17 0 0 1 17,17 v0 a17,17 0 0 1 -17,17 h-18 a17,17 0 0 1 -17,-17 v0 A17,17 0 0 1 318.979,113.979"/></mask><path x="314" y="109" width="52" height="34" fill="rgba(255,255,255,0.05)" d="M331,109 h18 a17,17 0 0 1 17,17 v0 a17,17 0 0 1 -17,17 h-18 a17,17 0 0 1 -17,-17 v0 a17,17 0 0 1 17,-17" clip-path="url(#satori_cp-id)" mask="url(#satori_om-id)"/><path width="52" height="34" clip-path="url(#satori_bc-id-2-3)" fill="none" stroke="rgba(255,255,255,0.1)" stroke-width="2" d="M318.979,113.979 A17,17 0 0 1 331,109 h18 a17,17 0 0 1 17,17 v0 a17,17 0 0 1 -17,17 h-18 a17,17 0 0 1 -17,-17 v0 A17,17 0 0 1 318.979,113.979"/><g mask="url(#satori_om-id)" clip-path="url(#satori_cp-id)"><path fill="rgba(255,255,255,0.75)" d="M340.0 131.1L340.0 131.1Q338.8 131.1 337.8 130.5Q336.9 130.0 336.3 128.9Q335.8 127.8 335.8 126.3L335.8 126.3Q335.8 124.8 336.3 123.7Q336.9 122.6 337.8 122.0Q338.8 121.4 340.0 121.4L340.0 121.4Q340.7 121.4 341.3 121.6Q342.0 121.8 342.5 122.2Q343.0 122.6 343.3 123.2Q343.7 123.8 343.8 124.5L343.8 124.5L342.6 124.5Q342.5 124.0 342.2 123.7Q342.0 123.3 341.6 123.0Q341.3 122.8 340.9 122.7Q340.4 122.5 340.0 122.5L340.0 122.5Q339.1 122.5 338.4 123.0Q337.7 123.4 337.3 124.2Q336.9 125.1 336.9 126.3L336.9 126.3Q336.9 127.5 337.4 128.3Q337.8 129.2 338.4 129.6Q339.1 130.0 340.0 130.0L340.0 130.0Q340.4 130.0 340.9 129.9Q341.3 129.7 341.6 129.5Q342.0 129.2 342.2 128.9Q342.5 128.5 342.6 128.0L342.6 128.0L343.8 128.0Q343.7 128.7 343.3 129.3Q343.0 129.9 342.5 130.3Q342.0 130.7 341.3 130.9Q340.7 131.1 340.0 131.1Z "/></g><defs><clipPath id="satori_bc-id-2-4" clip-path="url(#satori_cp-id)"><path x="376" y="109" width="89" height="34" d="M393,109 h55 a17,17 0 0 1 17,17 v0 a17,17 0 0 1 -17,17 h-55 a17,17 0 0 1 -17,-17 v0 a17,17 0 0 1 17,-17"/></clipPath></defs><mask id="satori_om-id-2-4"><rect x="377" y="110" width="87" height="32" fill="#fff" mask="url(#satori_om-id)"/><path width="89" height="34" fill="none" stroke="#000" stroke-width="2" d="M380.979,113.979 A17,17 0 0 1 393,109 h55 a17,17 0 0 1 17,17 v0 a17,17 0 0 1 -17,17 h-55 a17,17 0 0 1 -17,-17 v0 A17,17 0 0 1 380.979,113.979"/></mask><path x="376" y="109" width="89" height="34" fill="rgba(255,255,255,0.05)" d="M393,109 h55 a17,17 0 0 1 17,17 v0 a17,17 0 0 1 -17,17 h-55 a17,17 0 0 1 -17,-17 v0 a17,17 0 0 1 17,-17" clip-path="url(#satori_cp-id)" mask="url(#satori_om-id)"/><path width="89" height="34" clip-path="url(#satori_bc-id-2-4)" fill="none" stroke="rgba(255,255,255,0.1)" stroke-width="2" d="M380.979,113.979 A17,17 0 0 1 393,109 h55 a17,17 0 0 1 17,17 v0 a17,17 0 0 1 -17,17 h-55 a17,17 0 0 1 -17,-17 v0 A17,17 0 0 1 380.979,113.979"/><g mask="url(#satori_om-id)" clip-path="url(#satori_cp-id)"><path fill="rgba(255,255,255,0.75)" d="M399.3 131L398.1 131L398.1 121.5L401.4 121.5Q402.5 121.5 403.2 121.9Q403.9 122.3 404.3 123.0Q404.6 123.7 404.6 124.6Q404.6 125.4 404.3 126.1Q403.9 126.8 403.2 127.2Q402.5 127.6 401.4 127.6L401.4 127.6L399.3 127.6L399.3 131ZM399.3 122.6L399.3 126.5L401.3 126.5Q402.1 126.5 402.5 126.3Q403.0 126.0 403.2 125.6Q403.4 125.1 403.4 124.6Q403.4 124.0 403.2 123.6Q403.0 123.1 402.5 122.9Q402.1 122.6 401.3 122.6L401.3 122.6L399.3 122.6ZM406.7 133.6L406.7 133.6L407.0 132.6L407.1 132.6Q407.5 132.7 407.7 132.7Q408.0 132.6 408.3 132.4Q408.5 132.1 408.7 131.6L408.7 131.6L408.9 131.0L406.1 123.9L407.4 123.9L408.9 128.1Q409.1 128.8 409.3 129.4L409.3 129.4Q409.4 129.7 409.5 130.0L409.5 130.0Q409.5 129.7 409.6 129.4L409.6 129.4Q409.8 128.8 410.0 128.1L410.0 128.1L411.5 123.9L412.8 123.9L409.6 132.1Q409.4 132.6 409.1 133.0Q408.8 133.4 408.4 133.5Q408.0 133.7 407.5 133.7L407.5 133.7Q407.2 133.7 407.0 133.7Q406.8 133.6 406.7 133.6ZM415.9 123.9L417.4 123.9L417.4 124.9L415.9 124.9L415.9 129.2Q415.9 129.6 416.1 129.9Q416.3 130.1 416.8 130.1L416.8 130.1Q416.9 130.1 417.1 130.0Q417.2 130.0 417.4 130.0L417.4 130.0L417.6 131.0Q417.4 131.0 417.2 131.1Q417.0 131.1 416.8 131.1L416.8 131.1Q415.8 131.1 415.3 130.6Q414.8 130.1 414.8 129.2L414.8 129.2L414.8 124.9L413.7 124.9L413.7 123.9L414.8 123.9L414.8 122.2L415.9 122.2L415.9 123.9ZM420.5 126.7L420.5 126.7L420.5 131L419.4 131L419.4 121.5L420.5 121.5L420.5 125.1Q420.8 124.5 421.2 124.2L421.2 124.2Q421.8 123.8 422.6 123.8L422.6 123.8Q423.4 123.8 423.9 124.1Q424.4 124.4 424.7 125.0Q425.0 125.6 425.0 126.5L425.0 126.5L425.0 131L423.9 131L423.9 126.6Q423.9 125.8 423.5 125.3Q423.0 124.8 422.3 124.8L422.3 124.8Q421.8 124.8 421.4 125.1Q421.0 125.3 420.7 125.7Q420.5 126.1 420.5 126.7ZM430.4 131.2L430.4 131.2Q429.5 131.2 428.7 130.7Q428.0 130.2 427.6 129.4Q427.2 128.6 427.2 127.5L427.2 127.5Q427.2 126.4 427.6 125.6Q428.0 124.7 428.7 124.3Q429.5 123.8 430.4 123.8L430.4 123.8Q431.4 123.8 432.1 124.3Q432.9 124.7 433.3 125.6Q433.7 126.4 433.7 127.5L433.7 127.5Q433.7 128.6 433.3 129.4Q432.9 130.2 432.1 130.7Q431.4 131.2 430.4 131.2ZM430.4 130.1L430.4 130.1Q431.2 130.1 431.6 129.8Q432.1 129.4 432.3 128.8Q432.5 128.2 432.5 127.5L432.5 127.5Q432.5 126.8 432.3 126.2Q432.1 125.6 431.6 125.2Q431.2 124.8 430.4 124.8L430.4 124.8Q429.7 124.8 429.3 125.2Q428.8 125.6 428.6 126.2Q428.4 126.8 428.4 127.5L428.4 127.5Q428.4 128.2 428.6 128.8Q428.8 129.4 429.3 129.8Q429.7 130.1 430.4 130.1ZM437.0 126.7L437.0 126.7L437.0 131L435.8 131L435.8 123.9L436.9 123.9L437.0 125.2Q437.2 124.6 437.7 124.2L437.7 124.2Q438.3 123.8 439.1 123.8L439.1 123.8Q439.8 123.8 440.4 124.1Q440.9 124.4 441.2 125.0Q441.5 125.6 441.5 126.5L441.5 126.5L441.5 131L440.4 131L440.4 126.6Q440.4 125.8 440.0 125.3Q439.5 124.8 438.8 124.8L438.8 124.8Q438.3 124.8 437.9 125.1Q437.5 125.3 437.2 125.7Q437.0 126.1 437.0 126.7Z "/></g><defs><clipPath id="satori_bc-id-2-5" clip-path="url(#satori_cp-id)"><path x="475" y="109" width="82" height="34" d="M492,109 h48 a17,17 0 0 1 17,17 v0 a17,17 0 0 1 -17,17 h-48 a17,17 0 0 1 -17,-17 v0 a17,17 0 0 1 17,-17"/></clipPath></defs><mask id="satori_om-id-2-5"><rect x="476" y="110" width="80" height="32" fill="#fff" mask="url(#satori_om-id)"/><path width="82" height="34" fill="none" stroke="#000" stroke-width="2" d="M479.979,113.979 A17,17 0 0 1 492,109 h48 a17,17 0 0 1 17,17 v0 a17,17 0 0 1 -17,17 h-48 a17,17 0 0 1 -17,-17 v0 A17,17 0 0 1 479.979,113.979"/></mask><path x="475" y="109" width="82" height="34" fill="rgba(255,255,255,0.05)" d="M492,109 h48 a17,17 0 0 1 17,17 v0 a17,17 0 0 1 -17,17 h-48 a17,17 0 0 1 -17,-17 v0 a17,17 0 0 1 17,-17" clip-path="url(#satori_cp-id)" mask="url(#satori_om-id)"/><path width="82" height="34" clip-path="url(#satori_bc-id-2-5)" fill="none" stroke="rgba(255,255,255,0.1)" stroke-width="2" d="M479.979,113.979 A17,17 0 0 1 492,109 h48 a17,17 0 0 1 17,17 v0 a17,17 0 0 1 -17,17 h-48 a17,17 0 0 1 -17,-17 v0 A17,17 0 0 1 479.979,113.979"/><g mask="url(#satori_om-id)" clip-path="url(#satori_cp-id)"><path fill="rgba(255,255,255,0.75)" d="M498.3 131L497.1 131L497.1 121.5L498.3 121.5L498.3 125.6L503.3 125.6L503.3 121.5L504.5 121.5L504.5 131L503.3 131L503.3 126.7L498.3 126.7L498.3 131ZM509.8 122.6L506.8 122.6L506.8 121.5L513.9 121.5L513.9 122.6L511.0 122.6L511.0 131L509.8 131L509.8 122.6ZM517.3 131L516.2 131L516.2 121.5L517.9 121.5L520.2 127.5Q520.3 127.7 520.4 128.0Q520.5 128.3 520.6 128.7Q520.8 129.1 520.9 129.4L520.9 129.4Q520.9 129.6 520.9 129.7L520.9 129.7Q521.0 129.6 521.0 129.5L521.0 129.5Q521.1 129.1 521.2 128.7Q521.3 128.4 521.4 128.0Q521.6 127.7 521.6 127.5L521.6 127.5L523.9 121.5L525.7 121.5L525.7 131L524.5 131L524.5 125.6Q524.5 125.3 524.5 124.9Q524.5 124.6 524.5 124.1Q524.5 123.7 524.5 123.3L524.5 123.3Q524.5 123.1 524.5 122.8L524.5 122.8Q524.4 123.1 524.3 123.4L524.3 123.4Q524.2 123.8 524.0 124.2Q523.9 124.7 523.8 125.0Q523.6 125.4 523.6 125.6L523.6 125.6L521.4 131L520.4 131L518.3 125.6Q518.2 125.4 518.0 125.0Q517.9 124.7 517.8 124.3Q517.6 123.9 517.5 123.4L517.5 123.4Q517.4 123.1 517.3 122.8L517.3 122.8Q517.3 123.0 517.3 123.2L517.3 123.2Q517.3 123.7 517.3 124.1Q517.3 124.5 517.3 124.9Q517.3 125.3 517.3 125.6L517.3 125.6L517.3 131ZM534.0 131L528.4 131L528.4 121.5L529.6 121.5L529.6 129.9L534.0 129.9L534.0 131Z "/></g><defs><clipPath id="satori_bc-id-2-6" clip-path="url(#satori_cp-id)"><path x="567" y="109" width="70" height="34" d="M584,109 h36 a17,17 0 0 1 17,17 v0 a17,17 0 0 1 -17,17 h-36 a17,17 0 0 1 -17,-17 v0 a17,17 0 0 1 17,-17"/></clipPath></defs><mask id="satori_om-id-2-6"><rect x="568" y="110" width="68" height="32" fill="#fff" mask="url(#satori_om-id)"/><path width="70" height="34" fill="none" stroke="#000" stroke-width="2" d="M571.979,113.979 A17,17 0 0 1 584,109 h36 a17,17 0 0 1 17,17 v0 a17,17 0 0 1 -17,17 h-36 a17,17 0 0 1 -17,-17 v0 A17,17 0 0 1 571.979,113.979"/></mask><path x="567" y="109" width="70" height="34" fill="rgba(255,255,255,0.05)" d="M584,109 h36 a17,17 0 0 1 17,17 v0 a17,17 0 0 1 -17,17 h-36 a17,17 0 0 1 -17,-17 v0 a17,17 0 0 1 17,-17" clip-path="url(#satori_cp-id)" mask="url(#satori_om-id)"/><path width="70" height="34" clip-path="url(#satori_bc-id-2-6)" fill="none" stroke="rgba(255,255,255,0.1)" stroke-width="2" d="M571.979,113.979 A17,17 0 0 1 584,109 h36 a17,17 0 0 1 17,17 v0 a17,17 0 0 1 -17,17 h-36 a17,17 0 0 1 -17,-17 v0 A17,17 0 0 1 571.979,113.979"/><g mask="url(#satori_om-id)" clip-path="url(#satori_cp-id)"><path fill="rgba(255,255,255,0.75)" d="M593.0 131.1L593.0 131.1Q591.8 131.1 590.8 130.5Q589.9 130.0 589.3 128.9Q588.8 127.8 588.8 126.3L588.8 126.3Q588.8 124.8 589.3 123.7Q589.9 122.6 590.8 122.0Q591.8 121.4 593.0 121.4L593.0 121.4Q593.7 121.4 594.3 121.6Q595.0 121.8 595.5 122.2Q596.0 122.6 596.3 123.2Q596.7 123.8 596.8 124.5L596.8 124.5L595.6 124.5Q595.5 124.0 595.2 123.7Q595.0 123.3 594.6 123.0Q594.3 122.8 593.9 122.7Q593.4 122.5 593.0 122.5L593.0 122.5Q592.1 122.5 591.4 123.0Q590.7 123.4 590.3 124.2Q589.9 125.1 589.9 126.3L589.9 126.3Q589.9 127.5 590.4 128.3Q590.8 129.2 591.4 129.6Q592.1 130.0 593.0 130.0L593.0 130.0Q593.4 130.0 593.9 129.9Q594.3 129.7 594.6 129.5Q595.0 129.2 595.2 128.9Q595.5 128.5 595.6 128.0L595.6 128.0L596.8 128.0Q596.7 128.7 596.3 129.3Q596.0 129.9 595.5 130.3Q595.0 130.7 594.3 130.9Q593.7 131.1 593.0 131.1ZM602.2 131.2L602.2 131.2Q601.1 131.2 600.4 130.8Q599.6 130.5 599.2 129.9Q598.8 129.3 598.7 128.5L598.7 128.5L600.0 128.5Q600.0 129.1 600.3 129.4Q600.6 129.7 601.1 129.9Q601.6 130.1 602.2 130.1L602.2 130.1Q602.8 130.1 603.3 129.9Q603.8 129.7 604.1 129.3Q604.4 128.9 604.4 128.4L604.4 128.4Q604.4 127.9 604.2 127.7Q603.9 127.4 603.5 127.2Q603.1 127.0 602.6 126.9L602.6 126.9L601.4 126.5Q600.3 126.2 599.6 125.6Q599.0 125.0 599.0 124.1L599.0 124.1Q599.0 123.3 599.4 122.7Q599.9 122.1 600.6 121.7Q601.3 121.4 602.2 121.4L602.2 121.4Q603.2 121.4 603.9 121.7Q604.6 122.1 605.0 122.6Q605.4 123.2 605.5 123.9L605.5 123.9L604.3 123.9Q604.2 123.2 603.6 122.9Q603.1 122.5 602.2 122.5L602.2 122.5Q601.6 122.5 601.1 122.7Q600.7 122.9 600.4 123.2Q600.2 123.6 600.2 124.0L600.2 124.0Q600.2 124.5 600.5 124.8Q600.8 125.1 601.2 125.3Q601.6 125.5 602.0 125.5L602.0 125.5L602.9 125.8Q603.3 125.9 603.8 126.1Q604.2 126.3 604.6 126.6Q605.1 126.9 605.3 127.3Q605.6 127.8 605.6 128.4L605.6 128.4Q605.6 129.2 605.2 129.8Q604.8 130.4 604.0 130.8Q603.3 131.2 602.2 131.2ZM611.0 131.2L611.0 131.2Q610.0 131.2 609.2 130.8Q608.5 130.5 608.1 129.9Q607.6 129.3 607.6 128.5L607.6 128.5L608.8 128.5Q608.9 129.1 609.2 129.4Q609.5 129.7 610.0 129.9Q610.5 130.1 611.0 130.1L611.0 130.1Q611.6 130.1 612.2 129.9Q612.7 129.7 613.0 129.3Q613.3 128.9 613.3 128.4L613.3 128.4Q613.3 127.9 613.0 127.7Q612.8 127.4 612.3 127.2Q611.9 127.0 611.4 126.9L611.4 126.9L610.3 126.5Q609.1 126.2 608.5 125.6Q607.8 125.0 607.8 124.1L607.8 124.1Q607.8 123.3 608.3 122.7Q608.7 122.1 609.4 121.7Q610.2 121.4 611.1 121.4L611.1 121.4Q612.0 121.4 612.7 121.7Q613.5 122.1 613.9 122.6Q614.3 123.2 614.3 123.9L614.3 123.9L613.1 123.9Q613.1 123.2 612.5 122.9Q611.9 122.5 611.1 122.5L611.1 122.5Q610.4 122.5 610.0 122.7Q609.5 122.9 609.3 123.2Q609.0 123.6 609.0 124.0L609.0 124.0Q609.0 124.5 609.3 124.8Q609.6 125.1 610.1 125.3Q610.5 125.5 610.8 125.5L610.8 125.5L611.8 125.8Q612.1 125.9 612.6 126.1Q613.1 126.3 613.5 126.6Q613.9 126.9 614.2 127.3Q614.4 127.8 614.4 128.4L614.4 128.4Q614.4 129.2 614.0 129.8Q613.6 130.4 612.9 130.8Q612.1 131.2 611.0 131.2Z "/></g><defs><clipPath id="satori_bc-id-2-7" clip-path="url(#satori_cp-id)"><path x="647" y="109" width="173" height="34" d="M664,109 h139 a17,17 0 0 1 17,17 v0 a17,17 0 0 1 -17,17 h-139 a17,17 0 0 1 -17,-17 v0 a17,17 0 0 1 17,-17"/></clipPath></defs><mask id="satori_om-id-2-7"><rect x="648" y="110" width="171" height="32" fill="#fff" mask="url(#satori_om-id)"/><path width="173" height="34" fill="none" stroke="#000" stroke-width="2" d="M651.979,113.979 A17,17 0 0 1 664,109 h139 a17,17 0 0 1 17,17 v0 a17,17 0 0 1 -17,17 h-139 a17,17 0 0 1 -17,-17 v0 A17,17 0 0 1 651.979,113.979"/></mask><path x="647" y="109" width="173" height="34" fill="rgba(255,255,255,0.05)" d="M664,109 h139 a17,17 0 0 1 17,17 v0 a17,17 0 0 1 -17,17 h-139 a17,17 0 0 1 -17,-17 v0 a17,17 0 0 1 17,-17" clip-path="url(#satori_cp-id)" mask="url(#satori_om-id)"/><path width="173" height="34" clip-path="url(#satori_bc-id-2-7)" fill="none" stroke="rgba(255,255,255,0.1)" stroke-width="2" d="M651.979,113.979 A17,17 0 0 1 664,109 h139 a17,17 0 0 1 17,17 v0 a17,17 0 0 1 -17,17 h-139 a17,17 0 0 1 -17,-17 v0 A17,17 0 0 1 651.979,113.979"/><g mask="url(#satori_om-id)" clip-path="url(#satori_cp-id)"><path fill="rgba(255,255,255,0.75)" d="M672.3 131L670.9 131L668.3 121.5L669.6 121.5L671.1 127.3Q671.2 127.8 671.3 128.3Q671.4 128.8 671.5 129.3L671.5 129.3Q671.6 129.6 671.6 129.9L671.6 129.9Q671.7 129.6 671.7 129.3L671.7 129.3Q671.8 128.8 672.0 128.3Q672.1 127.8 672.2 127.3L672.2 127.3L673.7 121.5L675.1 121.5L676.6 127.3Q676.7 127.8 676.8 128.3Q677.0 128.8 677.1 129.3L677.1 129.3Q677.1 129.5 677.2 129.8L677.2 129.8Q677.2 129.5 677.3 129.3L677.3 129.3Q677.4 128.8 677.5 128.3Q677.6 127.8 677.7 127.3L677.7 127.3L679.2 121.5L680.5 121.5L677.9 131L676.5 131L674.9 125.0Q674.7 124.4 674.6 123.7L674.6 123.7Q674.5 123.4 674.4 122.9L674.4 122.9Q674.3 123.3 674.3 123.7L674.3 123.7Q674.1 124.3 673.9 125.0L673.9 125.0L672.3 131ZM683.5 131L682.3 131L682.3 123.9L683.5 123.9L683.5 131ZM682.9 122.7L682.9 122.7Q682.6 122.7 682.3 122.5Q682.1 122.3 682.1 122.0L682.1 122.0Q682.1 121.7 682.3 121.4Q682.6 121.2 682.9 121.2L682.9 121.2Q683.2 121.2 683.5 121.4Q683.7 121.7 683.7 122.0L683.7 122.0Q683.7 122.3 683.5 122.5Q683.2 122.7 682.9 122.7ZM687.1 126.7L687.1 126.7L687.1 131L686.0 131L686.0 123.9L687.1 123.9L687.1 125.2Q687.4 124.6 687.8 124.2L687.8 124.2Q688.4 123.8 689.2 123.8L689.2 123.8Q690.0 123.8 690.5 124.1Q691.0 124.4 691.3 125.0Q691.6 125.6 691.6 126.5L691.6 126.5L691.6 131L690.5 131L690.5 126.6Q690.5 125.8 690.1 125.3Q689.6 124.8 688.9 124.8L688.9 124.8Q688.4 124.8 688.0 125.1Q687.6 125.3 687.3 125.7Q687.1 126.1 687.1 126.7ZM696.8 131.2L696.8 131.2Q695.9 131.2 695.2 130.7Q694.6 130.3 694.2 129.4Q693.8 128.6 693.8 127.5L693.8 127.5Q693.8 126.3 694.2 125.5Q694.6 124.7 695.2 124.3Q695.9 123.8 696.8 123.8L696.8 123.8Q697.5 123.8 697.9 124.0Q698.3 124.3 698.5 124.6Q698.8 124.8 698.9 125.0L698.9 125.0L699.0 125.0L699.0 121.5L700.1 121.5L700.1 131L699.0 131L699.0 129.9L698.9 129.9Q698.8 130.1 698.5 130.4Q698.3 130.7 697.9 130.9Q697.5 131.2 696.8 131.2ZM697.0 130.1L697.0 130.1Q697.6 130.1 698.1 129.8Q698.5 129.5 698.7 128.8Q699.0 128.2 699.0 127.5L699.0 127.5Q699.0 126.7 698.7 126.1Q698.5 125.5 698.1 125.2Q697.6 124.8 697.0 124.8L697.0 124.8Q696.3 124.8 695.9 125.2Q695.4 125.5 695.2 126.1Q695.0 126.7 695.0 127.5L695.0 127.5Q695.0 128.2 695.2 128.8Q695.4 129.4 695.9 129.8Q696.3 130.1 697.0 130.1ZM705.5 131.2L705.5 131.2Q704.5 131.2 703.8 130.7Q703.1 130.2 702.7 129.4Q702.3 128.6 702.3 127.5L702.3 127.5Q702.3 126.4 702.7 125.6Q703.1 124.7 703.8 124.3Q704.5 123.8 705.5 123.8L705.5 123.8Q706.5 123.8 707.2 124.3Q707.9 124.7 708.3 125.6Q708.7 126.4 708.7 127.5L708.7 127.5Q708.7 128.6 708.3 129.4Q707.9 130.2 707.2 130.7Q706.5 131.2 705.5 131.2ZM705.5 130.1L705.5 130.1Q706.2 130.1 706.7 129.8Q707.1 129.4 707.4 128.8Q707.6 128.2 707.6 127.5L707.6 127.5Q707.6 126.8 707.4 126.2Q707.1 125.6 706.7 125.2Q706.2 124.8 705.5 124.8L705.5 124.8Q704.8 124.8 704.3 125.2Q703.9 125.6 703.6 126.2Q703.4 126.8 703.4 127.5L703.4 127.5Q703.4 128.2 703.6 128.8Q703.9 129.4 704.3 129.8Q704.8 130.1 705.5 130.1ZM713.6 131L712.5 131L710.3 123.9L711.6 123.9L712.4 127.0Q712.6 127.6 712.8 128.4L712.8 128.4Q712.9 129.0 713.1 129.8L713.1 129.8Q713.2 129.1 713.4 128.5L713.4 128.5Q713.6 127.7 713.8 127.0L713.8 127.0L714.6 123.9L715.8 123.9L716.7 127.0Q716.9 127.7 717.0 128.5L717.0 128.5Q717.2 129.1 717.3 129.8L717.3 129.8Q717.5 129.1 717.6 128.5L717.6 128.5Q717.8 127.7 718.0 127.0L718.0 127.0L718.9 123.9L720.1 123.9L717.9 131L716.8 131L715.9 127.8Q715.7 127.3 715.6 126.8Q715.5 126.3 715.3 125.8L715.3 125.8Q715.3 125.5 715.2 125.2L715.2 125.2Q715.1 125.5 715.1 125.7L715.1 125.7Q715.0 126.3 714.8 126.8Q714.7 127.3 714.5 127.8L714.5 127.8L713.6 131ZM724.4 131.2L724.4 131.2Q723.7 131.2 723.1 130.9Q722.6 130.7 722.2 130.3Q721.8 129.9 721.7 129.3L721.7 129.3L722.8 129.0Q723.0 129.6 723.4 129.9Q723.8 130.1 724.4 130.1L724.4 130.1Q725.2 130.1 725.6 129.8Q726.1 129.5 726.1 129.1L726.1 129.1Q726.1 128.7 725.8 128.5Q725.5 128.2 725.0 128.1L725.0 128.1L723.8 127.8Q722.9 127.6 722.4 127.1Q721.9 126.6 721.9 125.9L721.9 125.9Q721.9 125.3 722.3 124.8Q722.6 124.3 723.2 124.1Q723.8 123.8 724.6 123.8L724.6 123.8Q725.3 123.8 725.8 124.0Q726.3 124.3 726.6 124.6Q727.0 125.0 727.1 125.5L727.1 125.5L726.1 125.8Q725.9 125.4 725.6 125.1Q725.3 124.8 724.6 124.8L724.6 124.8Q723.9 124.8 723.5 125.1Q723.1 125.4 723.1 125.8L723.1 125.8Q723.1 126.2 723.4 126.4Q723.7 126.7 724.3 126.8L724.3 126.8L725.4 127.1Q726.3 127.3 726.8 127.8Q727.2 128.3 727.2 129.0L727.2 129.0Q727.2 129.6 726.9 130.1Q726.5 130.6 725.9 130.9Q725.3 131.2 724.4 131.2Z M734.8 131L733.7 131L733.7 121.5L735.4 121.5L737.7 127.5Q737.8 127.7 737.9 128.0Q738.0 128.3 738.1 128.7Q738.3 129.1 738.4 129.4L738.4 129.4Q738.4 129.6 738.4 129.7L738.4 129.7Q738.5 129.6 738.5 129.5L738.5 129.5Q738.6 129.1 738.7 128.7Q738.8 128.4 738.9 128.0Q739.1 127.7 739.1 127.5L739.1 127.5L741.4 121.5L743.2 121.5L743.2 131L742.0 131L742.0 125.6Q742.0 125.3 742.0 124.9Q742.0 124.6 742.0 124.1Q742.0 123.7 742.0 123.3L742.0 123.3Q742.0 123.1 742.0 122.8L742.0 122.8Q741.9 123.1 741.8 123.4L741.8 123.4Q741.7 123.8 741.5 124.2Q741.4 124.7 741.3 125.0Q741.1 125.4 741.1 125.6L741.1 125.6L738.9 131L737.9 131L735.7 125.6Q735.7 125.4 735.5 125.0Q735.4 124.7 735.3 124.3Q735.1 123.9 735.0 123.4L735.0 123.4Q734.9 123.1 734.8 122.8L734.8 122.8Q734.8 123.0 734.8 123.2L734.8 123.2Q734.8 123.7 734.8 124.1Q734.8 124.5 734.8 124.9Q734.8 125.3 734.8 125.6L734.8 125.6L734.8 131ZM747.8 131.2L747.8 131.2Q747.1 131.2 746.6 130.9Q746.0 130.7 745.7 130.2Q745.4 129.7 745.4 129.0L745.4 129.0Q745.4 128.4 745.6 128.0Q745.8 127.6 746.3 127.4Q746.7 127.2 747.1 127.1Q747.6 127.0 748.1 126.9L748.1 126.9Q748.8 126.8 749.2 126.8Q749.6 126.7 749.8 126.6Q749.9 126.5 749.9 126.2L749.9 126.2L749.9 126.2Q749.9 125.8 749.8 125.5Q749.6 125.1 749.3 125.0Q749.0 124.8 748.5 124.8L748.5 124.8Q748.0 124.8 747.6 125.0Q747.2 125.1 747.0 125.4Q746.8 125.6 746.7 125.9L746.7 125.9L745.6 125.5Q745.8 124.8 746.3 124.5Q746.8 124.1 747.3 124.0Q747.9 123.8 748.4 123.8L748.4 123.8Q748.8 123.8 749.2 123.9Q749.7 124.0 750.1 124.2Q750.5 124.5 750.8 125.0Q751.1 125.5 751.1 126.3L751.1 126.3L751.1 131L750.0 131L750.0 130.0L749.9 130.0Q749.8 130.3 749.5 130.5Q749.2 130.8 748.8 131.0Q748.4 131.2 747.8 131.2ZM748.0 130.2L748.0 130.2Q748.6 130.2 749.1 129.9Q749.5 129.7 749.7 129.3Q749.9 128.9 749.9 128.4L749.9 128.4L749.9 127.5Q749.9 127.5 749.6 127.6Q749.4 127.7 749.1 127.7Q748.8 127.8 748.5 127.8Q748.2 127.8 748.1 127.9L748.1 127.9Q747.7 127.9 747.3 128.0Q746.9 128.2 746.7 128.4Q746.5 128.6 746.5 129.0L746.5 129.0Q746.5 129.4 746.7 129.7Q746.9 129.9 747.2 130.0Q747.6 130.2 748.0 130.2ZM756.0 131.2L756.0 131.2Q755.3 131.2 754.7 130.9Q754.1 130.7 753.8 130.3Q753.4 129.9 753.3 129.3L753.3 129.3L754.4 129.0Q754.5 129.6 754.9 129.9Q755.4 130.1 756.0 130.1L756.0 130.1Q756.7 130.1 757.2 129.8Q757.6 129.5 757.6 129.1L757.6 129.1Q757.6 128.7 757.4 128.5Q757.1 128.2 756.6 128.1L756.6 128.1L755.4 127.8Q754.4 127.6 754.0 127.1Q753.5 126.6 753.5 125.9L753.5 125.9Q753.5 125.3 753.8 124.8Q754.2 124.3 754.8 124.1Q755.4 123.8 756.1 123.8L756.1 123.8Q756.9 123.8 757.4 124.0Q757.9 124.3 758.2 124.6Q758.5 125.0 758.7 125.5L758.7 125.5L757.6 125.8Q757.5 125.4 757.2 125.1Q756.8 124.8 756.1 124.8L756.1 124.8Q755.5 124.8 755.1 125.1Q754.6 125.4 754.6 125.8L754.6 125.8Q754.6 126.2 754.9 126.4Q755.2 126.7 755.8 126.8L755.8 126.8L756.9 127.1Q757.9 127.3 758.3 127.8Q758.8 128.3 758.8 129.0L758.8 129.0Q758.8 129.6 758.5 130.1Q758.1 130.6 757.5 130.9Q756.8 131.2 756.0 131.2ZM762.3 123.9L763.8 123.9L763.8 124.9L762.3 124.9L762.3 129.2Q762.3 129.6 762.5 129.9Q762.7 130.1 763.1 130.1L763.1 130.1Q763.2 130.1 763.4 130.0Q763.6 130.0 763.7 130.0L763.7 130.0L763.9 131.0Q763.8 131.0 763.5 131.1Q763.3 131.1 763.1 131.1L763.1 131.1Q762.2 131.1 761.7 130.6Q761.1 130.1 761.1 129.2L761.1 129.2L761.1 124.9L760.1 124.9L760.1 123.9L761.1 123.9L761.1 122.2L762.3 122.2L762.3 123.9ZM768.7 131.2L768.7 131.2Q767.7 131.2 766.9 130.7Q766.2 130.2 765.8 129.4Q765.4 128.6 765.4 127.5Q765.4 126.4 765.8 125.6Q766.2 124.8 766.9 124.3Q767.6 123.8 768.6 123.8L768.6 123.8Q769.1 123.8 769.7 124.0Q770.2 124.2 770.7 124.6Q771.1 125.0 771.4 125.7Q771.7 126.4 771.7 127.4L771.7 127.4L771.7 127.8L766.5 127.8Q766.5 128.5 766.8 129.0L766.8 129.0Q767.1 129.6 767.6 129.9Q768.1 130.1 768.7 130.1L768.7 130.1Q769.1 130.1 769.5 130.0Q769.8 129.9 770.1 129.7Q770.3 129.4 770.4 129.0L770.4 129.0L771.5 129.3Q771.4 129.9 771.0 130.3Q770.6 130.7 770.0 130.9Q769.4 131.2 768.7 131.2ZM766.5 126.9L766.5 126.9L770.5 126.9Q770.4 126.4 770.3 126.0L770.3 126.0Q770.1 125.4 769.6 125.1Q769.2 124.8 768.6 124.8Q767.9 124.8 767.5 125.1Q767.0 125.5 766.8 126.0L766.8 126.0Q766.6 126.4 766.5 126.9ZM774.9 131L773.8 131L773.8 123.9L774.9 123.9L774.9 125.0L775.0 125.0Q775.2 124.5 775.7 124.1Q776.2 123.8 776.8 123.8L776.8 123.8Q776.9 123.8 777.1 123.8Q777.3 123.8 777.4 123.8L777.4 123.8L777.4 125.0Q777.3 125.0 777.1 124.9Q776.9 124.9 776.7 124.9L776.7 124.9Q776.2 124.9 775.8 125.1Q775.4 125.3 775.2 125.7Q774.9 126.1 774.9 126.6L774.9 126.6L774.9 131ZM780.3 131L779.2 131L779.2 123.9L780.3 123.9L780.3 131ZM779.8 122.7L779.8 122.7Q779.4 122.7 779.2 122.5Q779.0 122.3 779.0 122.0L779.0 122.0Q779.0 121.7 779.2 121.4Q779.4 121.2 779.8 121.2L779.8 121.2Q780.1 121.2 780.3 121.4Q780.6 121.7 780.6 122.0L780.6 122.0Q780.6 122.3 780.3 122.5Q780.1 122.7 779.8 122.7ZM784.0 126.7L784.0 126.7L784.0 131L782.8 131L782.8 123.9L783.9 123.9L783.9 125.2Q784.2 124.6 784.7 124.2L784.7 124.2Q785.3 123.8 786.1 123.8L786.1 123.8Q786.8 123.8 787.4 124.1Q787.9 124.4 788.2 125.0Q788.5 125.6 788.5 126.5L788.5 126.5L788.5 131L787.4 131L787.4 126.6Q787.4 125.8 786.9 125.3Q786.5 124.8 785.8 124.8L785.8 124.8Q785.3 124.8 784.9 125.1Q784.4 125.3 784.2 125.7Q784.0 126.1 784.0 126.7ZM793.9 133.8L793.9 133.8Q793.1 133.8 792.5 133.6Q792.0 133.4 791.6 133.1Q791.2 132.7 791.0 132.4L791.0 132.4L791.9 131.8Q792.0 132.0 792.3 132.2Q792.5 132.5 792.9 132.6Q793.3 132.8 793.9 132.8L793.9 132.8Q794.7 132.8 795.3 132.4Q795.8 132.0 795.8 131.1L795.8 131.1L795.8 129.7L795.7 129.7Q795.6 129.9 795.4 130.2Q795.2 130.5 794.8 130.7Q794.4 130.9 793.7 130.9L793.7 130.9Q792.8 130.9 792.1 130.5Q791.5 130.1 791.1 129.3Q790.7 128.5 790.7 127.4L790.7 127.4Q790.7 126.3 791.1 125.5Q791.4 124.7 792.1 124.3Q792.8 123.8 793.7 123.8L793.7 123.8Q794.4 123.8 794.8 124.0Q795.2 124.3 795.4 124.6Q795.6 124.8 795.8 125.0L795.8 125.0L795.9 125.0L795.9 123.9L797.0 123.9L797.0 131.2Q797.0 132.1 796.6 132.7Q796.2 133.3 795.5 133.5Q794.8 133.8 793.9 133.8ZM793.9 129.9L793.9 129.9Q794.5 129.9 794.9 129.6Q795.4 129.3 795.6 128.7Q795.9 128.2 795.9 127.4L795.9 127.4Q795.9 126.6 795.6 126.1Q795.4 125.5 795.0 125.2Q794.5 124.8 793.9 124.8L793.9 124.8Q793.2 124.8 792.7 125.2Q792.3 125.5 792.1 126.1Q791.8 126.7 791.8 127.4L791.8 127.4Q791.8 128.1 792.1 128.7Q792.3 129.2 792.7 129.6Q793.2 129.9 793.9 129.9Z "/></g></svg>